<?xml version="1.0" encoding="UTF-8"?>
<!DOCTYPE svg PUBLIC "-//W3C//DTD SVG 1.1//EN" "http://www.w3.org/Graphics/SVG/1.1/DTD/svg11.dtd">
<!-- Creator: CorelDRAW -->
<svg xmlns="http://www.w3.org/2000/svg" xml:space="preserve" width="63.0816mm" height="63.0822mm" version="1.1" style="shape-rendering:geometricPrecision; text-rendering:geometricPrecision; image-rendering:optimizeQuality; fill-rule:evenodd; clip-rule:evenodd"
viewBox="0 0 255.95 255.95"
 xmlns:xlink="http://www.w3.org/1999/xlink"
 xmlns:xodm="http://www.corel.com/coreldraw/odm/2003">
 <defs>
  <style type="text/css">
   <![CDATA[
    .fil0 {fill:black}
   ]]>
  </style>
 </defs>
 <g id="Слой_x0020_1">
  <metadata id="CorelCorpID_0Corel-Layer"/>
  <path class="fil0" d="M127.97 0c70.68,0 127.97,57.3 127.97,127.97 0,70.68 -57.3,127.97 -127.97,127.97 -70.68,0 -127.97,-57.3 -127.97,-127.97 0,-70.68 57.29,-127.97 127.97,-127.97zm-69.5 193.02l0 -72.87c0,-19.33 6.81,-35.79 20.45,-49.36 13.66,-13.59 30.12,-20.41 49.4,-20.41 19.33,0 35.8,6.85 49.45,20.45l-24.79 24.65c-7.25,-6.8 -15.57,-10.2 -25.01,-10.2 -9.44,0 -17.59,3.4 -24.35,10.2 -6.76,6.81 -10.16,15.04 -10.16,24.66l0 8.1 64.39 0 0 34.9 -64.39 0 0 53.57c10.7,4.16 22.34,6.45 34.51,6.45 52.58,0 95.2,-42.62 95.2,-95.2 0,-52.58 -42.62,-95.2 -95.2,-95.2 -52.57,0 -95.2,42.62 -95.2,95.2 0,25.15 9.76,48.02 25.69,65.04z"/>
 </g>
</svg>
