<?xml version="1.0" encoding="UTF-8"?>
<!DOCTYPE svg PUBLIC "-//W3C//DTD SVG 1.1//EN" "http://www.w3.org/Graphics/SVG/1.1/DTD/svg11.dtd">
<!-- Creator: CorelDRAW -->
<svg xmlns="http://www.w3.org/2000/svg" xml:space="preserve" width="63.0816mm" height="63.0822mm" version="1.1" style="shape-rendering:geometricPrecision; text-rendering:geometricPrecision; image-rendering:optimizeQuality; fill-rule:evenodd; clip-rule:evenodd"
viewBox="0 0 289.3 289.3"
 xmlns:xlink="http://www.w3.org/1999/xlink"
 xmlns:xodm="http://www.corel.com/coreldraw/odm/2003">
 <defs>
  <style type="text/css">
   <![CDATA[
    .fil0 {fill:#000000}
   ]]>
  </style>
 </defs>
 <g id="Слой_x0020_1">
  <metadata id="CorelCorpID_0Corel-Layer"/>
  <path class="fil0" d="M144.65 0c79.89,0 144.65,64.76 144.65,144.65 0,79.89 -64.76,144.65 -144.65,144.65 -79.89,0 -144.65,-64.76 -144.65,-144.65 0,-79.89 64.76,-144.65 144.65,-144.65zm-78.56 218.17l0 -82.36c0,-21.85 7.7,-40.46 23.12,-55.79 15.44,-15.36 34.04,-23.07 55.84,-23.07 21.85,0 40.47,7.74 55.89,23.12l-28.02 27.87c-8.19,-7.69 -17.6,-11.53 -28.27,-11.53 -10.67,0 -19.88,3.84 -27.52,11.53 -7.64,7.69 -11.48,17 -11.48,27.87l0 9.16 72.78 0 0 39.45 -72.78 0 0 60.55c12.09,4.71 25.25,7.29 39,7.29 59.43,0 107.6,-48.18 107.6,-107.6 0,-59.43 -48.18,-107.6 -107.6,-107.6 -59.43,0 -107.6,48.18 -107.6,107.6 0,28.43 11.03,54.28 29.04,73.52z"/>
 </g>
</svg>
